<?xml version="1.0" encoding="UTF-8" standalone="no"?><svg width="100%" height="100%" viewBox="0 0 784 96" version="1.1" xmlns="http://www.w3.org/2000/svg" xmlnsXlink="http://www.w3.org/1999/xlink" xmlSpace="preserve" xmlnsZerif="http://www.serif.com/" style="fill-rule:evenodd;clip-rule:evenodd;stroke-linejoin:round;stroke-miterlimit:1.41421;"><g><path d="M294.204,27.515l0,-7.75c0,-0.918 -0.743,-1.662 -1.659,-1.662l-36.541,0c-0.918,0 -1.662,0.744 -1.662,1.662l0,56.472c0,0.916 0.744,1.66 1.662,1.66l36.541,0c0.916,0 1.659,-0.744 1.659,-1.66l0,-7.753c0,-0.916 -0.743,-1.659 -1.659,-1.659l-24.916,0l0,-13.288l16.057,0c0.915,0 1.659,-0.744 1.659,-1.662l0,-7.75c0,-0.919 -0.744,-1.66 -1.659,-1.66l-16.057,0l0,-13.29l24.916,0c0.916,0 1.659,-0.741 1.659,-1.66" style="fill:#d4d4d4;fill-rule:nonzero;"/><path d="M691.718,77.897l-4.428,0c-0.612,0 -1.106,-0.494 -1.106,-1.106l0,-57.578c0,-0.613 0.494,-1.11 1.106,-1.11l4.428,0c0.613,0 1.107,0.497 1.107,1.11l0,57.578c0,0.612 -0.494,1.106 -1.107,1.106" style="fill:#31e060;fill-rule:nonzero;"/><path d="M630.819,27.515l0,-7.75c0,-0.918 -0.744,-1.662 -1.66,-1.662l-36.54,0c-0.919,0 -1.663,0.744 -1.663,1.662l0,56.472c0,0.916 0.744,1.66 1.663,1.66l36.54,0c0.916,0 1.66,-0.744 1.66,-1.66l0,-7.753c0,-0.916 -0.744,-1.659 -1.66,-1.659l-24.915,0l0,-13.288l16.056,0c0.916,0 1.659,-0.744 1.659,-1.662l0,-7.75c0,-0.919 -0.743,-1.66 -1.659,-1.66l-16.056,0l0,-13.29l24.915,0c0.916,0 1.66,-0.741 1.66,-1.66" style="fill:#d4d4d4;fill-rule:nonzero;"/><path d="M353.998,66.825l0,-47.06c0,-0.918 -0.744,-1.661 -1.66,-1.661l-9.965,0c-0.919,0 -1.663,0.743 -1.663,1.662l0,56.472c0,0.915 0.744,1.659 1.663,1.659l34.325,-0.001c0.915,0.001 1.659,-0.742 1.659,-1.659l0,-7.749c0,-0.919 -0.744,-1.663 -1.659,-1.663l-22.7,-0.001l0,0.001Z" style="fill:#d4d4d4;fill-rule:nonzero;"/><path d="M545.004,18.103l-40.969,0c-0.919,0 -1.662,0.744 -1.662,1.659l0,7.753c0,0.916 0.743,1.66 1.662,1.66l13.841,0l0,47.059c0,0.919 0.743,1.663 1.659,1.663l9.966,0c0.918,0 1.662,-0.744 1.662,-1.663l0,-47.059l13.841,0c0.919,0 1.659,-0.744 1.659,-1.66l0,-7.753c0,-0.915 -0.74,-1.659 -1.659,-1.659" style="fill:#d4d4d4;fill-rule:nonzero;"/><path d="M782.515,18.103l-42.075,0c-0.613,0 -1.107,0.497 -1.107,1.106l0,3.322c0,0.612 0.494,1.109 1.107,1.109l17.715,0l0,53.147c0,0.613 0.497,1.11 1.107,1.11l4.431,0c0.612,0 1.106,-0.497 1.106,-1.11l0,-53.147l17.716,0c0.618,0 1.109,-0.497 1.109,-1.109l0,-3.322c0,-0.609 -0.491,-1.106 -1.109,-1.106" style="fill:#31e060;fill-rule:nonzero;"/><path d="M434.46,57.966l8.122,-21.925l8.118,21.925l-16.24,0Zm24.778,19.931l9.744,0c1.159,0 1.962,-1.153 1.559,-2.237l-20.916,-56.472c-0.24,-0.65 -0.862,-1.085 -1.556,-1.085l-10.978,0c-0.694,0 -1.316,0.435 -1.556,1.085l-20.916,56.472c-0.4,1.084 0.403,2.237 1.559,2.237l9.744,0c0.694,0 1.316,-0.434 1.56,-1.084l2.878,-7.775l24.44,0l2.882,7.775c0.24,0.65 0.862,1.084 1.556,1.084" style="fill:#d4d4d4;fill-rule:nonzero;"/><path d="M190.618,50.216l-13.785,0l0,-21.038l13.785,0c5.809,0 10.519,4.71 10.519,10.519c0,5.809 -4.71,10.519 -10.519,10.519m9.734,11.1c8.219,-3.328 14.019,-11.378 14.019,-20.788c0,-12.384 -10.041,-22.425 -22.425,-22.425l-0.003,0l-26.738,0c-0.915,0 -1.659,0.744 -1.659,1.663l0,56.472c0,0.915 0.744,1.659 1.659,1.659l9.966,0c0.919,0 1.662,-0.744 1.662,-1.659l0,-13.841l8.941,0l12.706,14.916c0.316,0.372 0.778,0.584 1.266,0.584l11.137,0c1.416,0 2.185,-1.659 1.266,-2.737l-11.797,-13.844Z" style="fill:#d4d4d4;fill-rule:nonzero;"/><path d="M1.817,0.386c-0.801,0.24 -1.416,0.91 -1.576,1.743l0,91.491c0.201,1.047 1.121,1.838 2.226,1.838l77.038,0c0.884,0 1.686,-0.514 2.056,-1.316c0.372,-0.801 0.243,-1.746 -0.329,-2.418l-19.397,-22.82c12.208,-6.132 19.937,-18.52 19.937,-32.359c0,-19.105 -14.855,-34.805 -33.62,-36.159l-46.335,0Zm7.178,4.438l36.523,0c2.915,0 5.726,0.427 8.409,1.166l-9.489,26.815l-35.443,-27.981Zm39.528,30.021l9.68,-27.356c11.191,4.905 19.036,16.076 19.036,29.056c0,1.388 -0.108,2.755 -0.281,4.104l-28.435,-5.804Zm-41.508,-25.81l34.885,27.541l-20.197,16.525l-14.688,-44.066Zm-2.282,7.487l13.413,40.241l-13.413,26.828l0,-67.069Zm44.454,23.085l26.872,5.484c-2.403,8.646 -8.38,15.938 -16.672,19.96l-10.2,-25.444Zm-23.846,16.373l19.222,-15.726l9.749,24.319l-28.971,-8.593Zm-3.571,3.67l29.9,8.868l-44.328,19.988l14.428,-28.856Zm36.718,12.313l16.117,18.961l-27.373,0l11.256,-18.961Zm-5.943,1.132l-10.583,17.829l-28.956,0l39.539,-17.829Z" style="fill:url(#_Linear1);fill-rule:nonzero;"/></g><defs><linearGradient id="_Linear1" x1="0" y1="0" x2="1" y2="0" gradientUnits="userSpaceOnUse" gradientTransform="matrix(77.06,-77.06,77.06,77.06,-46.3143,47.6154)"><stop offset="0" style="stop-color:#86bc25;stop-opacity:1"/><stop offset="0" style="stop-color:#86bc25;stop-opacity:1"/><stop offset="0.44" style="stop-color:#28ae7f;stop-opacity:1"/><stop offset="0.5" style="stop-color:#00ac89;stop-opacity:1"/><stop offset="1" style="stop-color:#009dcc;stop-opacity:1"/></linearGradient></defs></svg>